# xmcd
#
# Track frame offsets:
#	150
#	15622
#	29203
#	41502
#	56861
#	71006
#	85510
#	101303
#	120559
#	133972
#	149861
#	170151
#	190172
#	208476
#	226659
#
# Disc length: 3221
#
# Revision: 3
# Processed by: cddbd v1.5.1PL0 Copyright (c) Steve Scherf et al.
# Submitted via: ExactAudioCopy v0.95a5
# Normalized: r2:TDELIM( - )
#
DISCID=e30c930f
DTITLE=Various Artist - Soul Classics CD03
DYEAR=1998
DGENRE=Soul
TTITLE0=Joe Tex - Buying A Book
TTITLE1=Clarence Carter - Patches
TTITLE2=Eddie Floyd - Bring It On Home To Me
TTITLE3=Chuck Jackson - Any Day Now
TTITLE4=GC Cameron and Martha Reeves - You'r All I Need To Get By
TTITLE5=The Independents - Leaving Me
TTITLE6=The Chi-Lites - Oh Girl
TTITLE7=Denise Lasalle - It's Lying Time Again
TTITLE8=Percy Sledge - Take Time To Know Her
TTITLE9=Brenda Holloway - Every Little Bit Hurts
TTITLE10=Ronnie McNeir - Let's Get It On
TTITLE11=Percy Sledge - You Send Me
TTITLE12=Charles Brimmer - That's How Strong My Love Is
TTITLE13=Brook Benton - Rainy Night In Georgia
TTITLE14=J.J. Barnes - Our Love Is In The Pocket
EXTD=
EXTT0=
EXTT1=
EXTT2=
EXTT3=
EXTT4=
EXTT5=
EXTT6=
EXTT7=
EXTT8=
EXTT9=
EXTT10=
EXTT11=
EXTT12=
EXTT13=
EXTT14=
PLAYORDER=
